# xmcd
#
# Track frame offsets: 
#        182
#        12680
#        22542
#        32257
#        46780
#        58757
#        68277
#        82775
#        91512
#        103890
#        114082
#        126642
#        136815
#        147100
#        159210
#        167052
#        178127
#        188720
#        198497
#        209242
#        220285
#        237167
#        255492
#        266785
#
# Disc length: 3738 seconds
#
# Revision: 2
# Processed by: cddbd v1.5.2PL0 Copyright (c) Steve Scherf et al.
# Submitted via: ExactAudioCopy v1.3
#
DISCID=400e9818
DTITLE=Various Artist - Cajun Classics, More - The Kings Of Cajun At 
DTITLE=Their Very Best
DYEAR=1994
DGENRE=Cajun
TTITLE0=Balfa Brothers - Lacassine Special (1964)
TTITLE1=Shirley Bergeron - Madam Bosso (1961)
TTITLE2=Nathan Abshire - Sur La Courtableau (1966)
TTITLE3=Lawrence Walker - La Valse De Reno (1960)
TTITLE4=Happy Fats - Les Veuves De La Coulee (1961)
TTITLE5=Touchet Brothers - Jolie Fille (1985)
TTITLE6=Austin Pitre - Mamou Blues (1961)
TTITLE7=Radeaux and La Aces - Louisana Aces Special (1961)
TTITLE8=Harry Choates - Jole Blonde (1946)
TTITLE9=Iry Lejeune - Grand Nuit Special (1953)
TTITLE10=Aldus Roger - I Passed By Your Door (1964)
TTITLE11=Hackberry Ramblers - Cajun Pogo (1963)
TTITLE12=Hobo Bertrand - Starvation Waltz (1966)
TTITLE13=Robert Bertrand - Mowater Blues (1970)
TTITLE14=Joe Bonsal - Hippy Ti Yo (1971)
TTITLE15=Doris Matte - Les Traces De Mon Bogue (1962)
TTITLE16=Camay Doucet - Hold My False Teeth (1976)
TTITLE17=Vince Bruce - Hey Jolie (1993)
TTITLE18=Sheryl Cormier and Cajun Brothers - Makes Me Feel Like Dancin (
TTITLE18=1993)
TTITLE19=Tasso Cajun Band - Valse De Cypriere (1993)
TTITLE20=Le Band Passepartout - La Vie De Cadjin (1993)
TTITLE21=Tracy Schwarz - Le Ti Mouchoir (193)
TTITLE22=Balfa Toujours - Tu Peux Cogner (1993)
TTITLE23=Hadley Castille - Going Back To Louisana (1993)
EXTD=
EXTT0=
EXTT1=
EXTT2=
EXTT3=
EXTT4=
EXTT5=
EXTT6=
EXTT7=
EXTT8=
EXTT9=
EXTT10=
EXTT11=
EXTT12=
EXTT13=
EXTT14=
EXTT15=
EXTT16=
EXTT17=
EXTT18=
EXTT19=
EXTT20=
EXTT21=
EXTT22=
EXTT23=
PLAYORDER=
